<?xml version="1.0" encoding="utf-8"?>
<!-- Generator: Fusion 360, Shaper Origin Export Add-In, Version 1.9.0  -->
<svg xmlns="http://www.w3.org/2000/svg" xmlns:xlink="http://www.w3.org/1999/xlink" xmlns:shaper="http://www.shapertools.com/namespaces/shaper" shaper:fusionaddin="version:1.9.0" width="15cm" height="3.2cm" version="1.1" x="0cm" y="0cm" viewBox="0 0 15 3.2" enable-background="new 0 0 15 3.2" xml:space="preserve"><path d="M7.3,-1.6 A0.2,0.2 270 0,1 7.5,-1.4 L7.5,1.4 A0.2,0.2 0 0,1 7.3,1.6 L-7.3,1.6 A0.2,0.2 90 0,1 -7.5,1.4 L-7.5,-1.4 A0.2,0.2 180 0,1 -7.3,-1.6 L7.3,-1.6z" transform="matrix(1,0,0,-1,7.5,1.6)" fill="rgb(0,0,0)" shaper:cutDepth="0.7cm" stroke-linecap="round" stroke-linejoin="round" /><path d="M-6.7,-0 a0.7,0.7 0 1,1 1.4,0 a0.7,0.7 0 1,1 -1.4,0z" transform="matrix(1,0,0,-1,7.5,1.6)" fill="rgb(255,255,255)" stroke="rgb(0,0,0)" stroke-width="0.0010cm" stroke-linecap="round" stroke-linejoin="round" shaper:cutDepth="0.7cm" /><path d="M5.2500002,-0 a0.15,0.15 0 1,1 0.3,0 a0.15,0.15 0 1,1 -0.3,0z" transform="matrix(1,0,0,-1,7.5,1.6)" fill="rgb(255,255,255)" stroke="rgb(0,0,0)" stroke-width="0.0010cm" stroke-linecap="round" stroke-linejoin="round" shaper:cutDepth="0.7cm" /><path d="M-3.7499999,-0.9 a0.15,0.15 0 1,1 0.3,0 a0.15,0.15 0 1,1 -0.3,0z" transform="matrix(1,0,0,-1,7.5,1.6)" fill="rgb(255,255,255)" stroke="rgb(0,0,0)" stroke-width="0.0010cm" stroke-linecap="round" stroke-linejoin="round" shaper:cutDepth="0.7cm" /><path d="M6.8500002,-0 a0.15,0.15 0 1,1 0.3,0 a0.15,0.15 0 1,1 -0.3,0z" transform="matrix(1,0,0,-1,7.5,1.6)" fill="rgb(255,255,255)" stroke="rgb(0,0,0)" stroke-width="0.0010cm" stroke-linecap="round" stroke-linejoin="round" shaper:cutDepth="0.7cm" /><path d="M-7.05,-0.9 a0.15,0.15 0 1,1 0.3,0 a0.15,0.15 0 1,1 -0.3,0z" transform="matrix(1,0,0,-1,7.5,1.6)" fill="rgb(255,255,255)" stroke="rgb(0,0,0)" stroke-width="0.0010cm" stroke-linecap="round" stroke-linejoin="round" shaper:cutDepth="0.7cm" /><path d="M-7.05,0.9 a0.15,0.15 0 1,1 0.3,0 a0.15,0.15 0 1,1 -0.3,0z" transform="matrix(1,0,0,-1,7.5,1.6)" fill="rgb(255,255,255)" stroke="rgb(0,0,0)" stroke-width="0.0010cm" stroke-linecap="round" stroke-linejoin="round" shaper:cutDepth="0.7cm" /><path d="M6.0500002,-0.8 a0.15,0.15 0 1,1 0.3,0 a0.15,0.15 0 1,1 -0.3,0z" transform="matrix(1,0,0,-1,7.5,1.6)" fill="rgb(255,255,255)" stroke="rgb(0,0,0)" stroke-width="0.0010cm" stroke-linecap="round" stroke-linejoin="round" shaper:cutDepth="0.7cm" /><path d="M6.0500002,0.8 a0.15,0.15 0 1,1 0.3,0 a0.15,0.15 0 1,1 -0.3,0z" transform="matrix(1,0,0,-1,7.5,1.6)" fill="rgb(255,255,255)" stroke="rgb(0,0,0)" stroke-width="0.0010cm" stroke-linecap="round" stroke-linejoin="round" shaper:cutDepth="0.7cm" /><path d="M-3.75,0.9 a0.15,0.15 0 1,1 0.3,0 a0.15,0.15 0 1,1 -0.3,0z" transform="matrix(1,0,0,-1,7.5,1.6)" fill="rgb(255,255,255)" stroke="rgb(0,0,0)" stroke-width="0.0010cm" stroke-linecap="round" stroke-linejoin="round" shaper:cutDepth="0.7cm" /></svg>