  0
SECTION
  2
ENTITIES
  0
LINE
  8
0
 10
18.7000
 20
10.0000
 11
33.7000
 21
11.1000
  0
ARC
  8
0
 10
33.7000
 20
18.7000
 40
7.6000
 50
270.0000
 51
90.0000
  0
LINE
  8
0
 10
33.7000
 20
26.3000
 11
18.7000
 21
27.4000
  0
ARC
  8
0
 10
18.7000
 20
18.7000
 40
8.7000
 50
90.0000
 51
270.0000
  0
LINE
  8
0
 10
16.6875
 20
20.5000
 11
20.7125
 21
20.5000
  0
LINE
  8
0
 10
20.7125
 20
20.5000
 11
20.9160
 21
20.2425
  0
LINE
  8
0
 10
20.9160
 20
20.2425
 11
21.0868
 21
19.9623
  0
LINE
  8
0
 10
21.0868
 20
19.9623
 11
21.2223
 21
19.6634
  0
LINE
  8
0
 10
21.2223
 20
19.6634
 11
21.3205
 21
19.3503
  0
LINE
  8
0
 10
21.3205
 20
19.3503
 11
21.3801
 21
19.0276
  0
LINE
  8
0
 10
21.3801
 20
19.0276
 11
21.4000
 21
18.7000
  0
LINE
  8
0
 10
21.4000
 20
18.7000
 11
21.3801
 21
18.3724
  0
LINE
  8
0
 10
21.3801
 20
18.3724
 11
21.3205
 21
18.0497
  0
LINE
  8
0
 10
21.3205
 20
18.0497
 11
21.2223
 21
17.7366
  0
LINE
  8
0
 10
21.2223
 20
17.7366
 11
21.0868
 21
17.4377
  0
LINE
  8
0
 10
21.0868
 20
17.4377
 11
20.9160
 21
17.1575
  0
LINE
  8
0
 10
20.9160
 20
17.1575
 11
20.7125
 21
16.9000
  0
LINE
  8
0
 10
20.7125
 20
16.9000
 11
16.6875
 21
16.9000
  0
LINE
  8
0
 10
16.6875
 20
16.9000
 11
16.4840
 21
17.1575
  0
LINE
  8
0
 10
16.4840
 20
17.1575
 11
16.3132
 21
17.4377
  0
LINE
  8
0
 10
16.3132
 20
17.4377
 11
16.1777
 21
17.7366
  0
LINE
  8
0
 10
16.1777
 20
17.7366
 11
16.0795
 21
18.0497
  0
LINE
  8
0
 10
16.0795
 20
18.0497
 11
16.0199
 21
18.3724
  0
LINE
  8
0
 10
16.0199
 20
18.3724
 11
16.0000
 21
18.7000
  0
LINE
  8
0
 10
16.0000
 20
18.7000
 11
16.0199
 21
19.0276
  0
LINE
  8
0
 10
16.0199
 20
19.0276
 11
16.0795
 21
19.3503
  0
LINE
  8
0
 10
16.0795
 20
19.3503
 11
16.1777
 21
19.6634
  0
LINE
  8
0
 10
16.1777
 20
19.6634
 11
16.3132
 21
19.9623
  0
LINE
  8
0
 10
16.3132
 20
19.9623
 11
16.4840
 21
20.2425
  0
LINE
  8
0
 10
16.4840
 20
20.2425
 11
16.6875
 21
20.5000
  0
LINE
  8
0
 10
16.6875
 20
20.5000
 11
16.6875
 21
20.5000
  0
CIRCLE
  8
0
 10
33.7000
 20
18.7000
 40
1.6000
  0
LINE
  8
0
 10
53.9000
 20
10.0000
 11
98.9000
 21
10.0000
  0
ARC
  8
0
 10
98.9000
 20
17.6000
 40
7.6000
 50
270.0000
 51
90.0000
  0
LINE
  8
0
 10
98.9000
 20
25.2000
 11
53.9000
 21
25.2000
  0
ARC
  8
0
 10
53.9000
 20
17.6000
 40
7.6000
 50
90.0000
 51
270.0000
  0
CIRCLE
  8
0
 10
53.9000
 20
17.6000
 40
1.6000
  0
CIRCLE
  8
0
 10
98.9000
 20
17.6000
 40
1.6000
  0
LINE
  8
0
 10
121.5000
 20
10.0000
 11
212.0000
 21
12.4000
  0
ARC
  8
0
 10
212.0000
 20
20.0000
 40
7.6000
 50
270.0000
 51
90.0000
  0
LINE
  8
0
 10
212.0000
 20
27.6000
 11
121.5000
 21
30.0000
  0
ARC
  8
0
 10
121.5000
 20
20.0000
 40
10.0000
 50
90.0000
 51
270.0000
  0
LINE
  8
0
 10
140.6000
 20
18.4000
 11
187.4000
 21
18.4000
  0
LINE
  8
0
 10
140.6000
 20
21.6000
 11
187.4000
 21
21.6000
  0
ARC
  8
0
 10
140.6000
 20
20.0000
 40
1.6000
 50
90.0000
 51
270.0000
  0
ARC
  8
0
 10
187.4000
 20
20.0000
 40
1.6000
 50
270.0000
 51
90.0000
  0
CIRCLE
  8
0
 10
121.5000
 20
20.0000
 40
4.0000
  0
CIRCLE
  8
0
 10
212.0000
 20
20.0000
 40
1.6000
  0
ENDSEC
  0
EOF